{
  "accessors": [
    {
      "bufferView": 2,
      "componentType": 5126,
      "count": 367,
      "max": [
        3.1729140281677246,
        1.7522698640823364,
        3.1729140281677246
      ],
      "min": [
        -3.1729140281677246,
        -1.75,
        -3.1729137897491455
      ],
      "type": "VEC3"
    },
    {
      "bufferView": 2,
      "byteOffset": 4404,
      "componentType": 5126,
      "count": 367,
      "max": [
        1.0,
        1.0,
        1.0
      ],
      "min": [
        -1.0,
        -1.0,
        -1.0
      ],
      "type": "VEC3"
    },
    {
      "bufferView": 3,
      "componentType": 5126,
      "count": 367,
      "max": [
        1.0,
        0.08734424412250519,
        1.0,
        1.0
      ],
      "min": [
        -1.0,
        -0.08734441548585892,
        -1.0,
        1.0
      ],
      "type": "VEC4"
    },
    {
      "bufferView": 1,
      "componentType": 5126,
      "count": 367,
      "max": [
        0.9574086666107178,
        0.7704017758369446
      ],
      "min": [
        0.03493154048919678,
        0.08315321803092957
      ],
      "type": "VEC2"
    },
    {
      "bufferView": 0,
      "componentType": 5125,
      "count": 1440,
      "type": "SCALAR"
    }
  ],
  "asset": {
    "extras": {
      "author": "dohritow0804 (https://sketchfab.com/sadohritow0804)",
      "license": "CC-BY-4.0 (http://creativecommons.org/licenses/by/4.0/)",
      "source": "https://sketchfab.com/3d-models/tuna-can-5d0ffab432c6434fa88c346e77984308",
      "title": "Tuna Can"
    },
    "generator": "Sketchfab-12.65.0",
    "version": "2.0"
  },
  "bufferViews": [
    {
      "buffer": 0,
      "byteLength": 5760,
      "name": "floatBufferViews",
      "target": 34963
    },
    {
      "buffer": 0,
      "byteLength": 2936,
      "byteOffset": 5760,
      "byteStride": 8,
      "name": "floatBufferViews",
      "target": 34962
    },
    {
      "buffer": 0,
      "byteLength": 8808,
      "byteOffset": 8696,
      "byteStride": 12,
      "name": "floatBufferViews",
      "target": 34962
    },
    {
      "buffer": 0,
      "byteLength": 5872,
      "byteOffset": 17504,
      "byteStride": 16,
      "name": "floatBufferViews",
      "target": 34962
    }
  ],
  "buffers": [
    {
      "byteLength": 23376,
      "uri": "scene.bin"
    }
  ],
  "images": [
    {
      "uri": "textures/tinCan_baseColor.png"
    },
    {
      "uri": "textures/tinCan_metallicRoughness.png"
    },
    {
      "uri": "textures/tinCan_normal.png"
    }
  ],
  "materials": [
    {
      "doubleSided": true,
      "name": "tinCan",
      "normalTexture": {
        "index": 2
      },
      "pbrMetallicRoughness": {
        "baseColorTexture": {
          "index": 0
        },
        "metallicRoughnessTexture": {
          "index": 1
        }
      }
    }
  ],
  "meshes": [
    {
      "name": "tinCanLowPoly_tinCan_0",
      "primitives": [
        {
          "attributes": {
            "NORMAL": 1,
            "POSITION": 0,
            "TANGENT": 2,
            "TEXCOORD_0": 3
          },
          "indices": 4,
          "material": 0,
          "mode": 4
        }
      ]
    }
  ],
  "nodes": [
    {
      "children": [
        1
      ],
      "matrix": [
        1.0,
        0.0,
        0.0,
        0.0,
        0.0,
        2.220446049250313e-16,
        -1.0,
        0.0,
        0.0,
        1.0,
        2.220446049250313e-16,
        0.0,
        0.0,
        0.0,
        0.0,
        1.0
      ],
      "name": "Sketchfab_model"
    },
    {
      "children": [
        2
      ],
      "matrix": [
        1.0,
        0.0,
        0.0,
        0.0,
        0.0,
        0.0,
        1.0,
        0.0,
        0.0,
        -1.0,
        0.0,
        0.0,
        0.0,
        0.0,
        0.0,
        1.0
      ],
      "name": "tinCan.fbx"
    },
    {
      "children": [
        3
      ],
      "name": "RootNode"
    },
    {
      "children": [
        4
      ],
      "matrix": [
        1.0110176801681519,
        0.0,
        0.0,
        0.0,
        0.0,
        1.0110176801681519,
        0.0,
        0.0,
        0.0,
        0.0,
        1.0110176801681519,
        0.0,
        0.0,
        0.0,
        0.0,
        1.0
      ],
      "name": "tinCanLowPoly"
    },
    {
      "mesh": 0,
      "name": "tinCanLowPoly_tinCan_0"
    }
  ],
  "samplers": [
    {
      "magFilter": 9729,
      "minFilter": 9987,
      "wrapS": 10497,
      "wrapT": 10497
    }
  ],
  "scene": 0,
  "scenes": [
    {
      "name": "Sketchfab_Scene",
      "nodes": [
        0
      ]
    }
  ],
  "textures": [
    {
      "sampler": 0,
      "source": 0
    },
    {
      "sampler": 0,
      "source": 1
    },
    {
      "sampler": 0,
      "source": 2
    }
  ]
}
